{"title":"The.Simpsons.S27E08.720p.WEB-DL.DD5.1.H264-NTb","uid":12953027,"size":743928907,"categoryP":"video","categoryS":"hd___tv_shows","magnet":"?xt=urn:btih:bcf8613d9eb3d461492ea274ad01649cf4d4fe1a&amp;dn=The.Simpsons.S27E08.720p.WEB-DL.DD5.1.H264-NTb&amp;tr=udp%3A%2F%2Ftracker.leechers-paradise.org%3A6969&amp;tr=udp%3A%2F%2Fzer0day.ch%3A1337&amp;tr=udp%3A%2F%2Fopen.demonii.com%3A1337&amp;tr=udp%3A%2F%2Ftracker.coppersurfer.tk%3A6969&amp;tr=udp%3A%2F%2Fexodus.desync.com%3A6969","seeders":1,"leechers":0,"uploader":null,"files":3,"time":1449753987,"description":"Video\r\nID                                       : 1\r\nFormat                                   : AVC\r\nFormat/Info                              : Advanced Video Codec\r\nFormat profile                           :   \r\nFormat settings, CABAC                   : No\r\nFormat settings, ReFrames                : 2 frames\r\nCodec ID                                 : V_MPEG4/ISO/AVC\r\nDuration                                 : 22mn 34s\r\nBit rate                                 : 3 921 Kbps\r\nWidth                                    : 1 280 pixels\r\nHeight                                   : 718 pixels\r\nDisplay aspect ratio                     : 16:9\r\nFrame rate mode                          : Constant\r\nFrame rate                               : 23.976 fps\r\nColor space                              : YUV\r\nChroma subsampling                       : 4:2:0\r\nBit depth                                : 8 bits\r\nScan type                                : Progressive\r\nBits/(Pixel*Frame)                       : 0.178\r\nStream size                              : 633 MiB (89%)\r\nLanguage                                 : English\r\nDefault                                  : Yes\r\nForced                                   : No\r\nColor range                              : Limited\r\nColor primaries                          : BT.709\r\nTransfer characteristics                 : BT.709\r\nMatrix coefficients                      : BT.709\r\n\r\nAudio\r\nID                                       : 2\r\nFormat                                   : AC-3\r\nFormat/Info                              : Audio Coding 3\r\nMode extension                           : CM (complete main)\r\nFormat settings, Endianness              : Big\r\nCodec ID                                 : A_AC3\r\nDuration                                 : 22mn 34s\r\nBit rate mode                            : Constant\r\nBit rate                                 : 384 Kbps\r\nChannel(s)                               : 6 channels\r\nChannel positions                        : Front: L C R, Side: L R, LFE\r\nSampling rate                            : 48.0 KHz\r\nCompression mode                         : Lossy\r\nStream size                              : 62.0 MiB (9%)\r\nLanguage                                 : English\r\nDefault                                  : Yes\r\nForced                                   : No\r\n\r\nText\r\nID                                       : 3\r\nFormat                                   : UTF-8\r\nCodec ID                                 : S_TEXT/UTF8\r\nCodec ID/Info                            : UTF-8 Plain Text\r\nLanguage                                 : English\r\nDefault                                  : Yes\r\nForced                                   : No","torrent":{"xt":"urn:btih:bcf8613d9eb3d461492ea274ad01649cf4d4fe1a","amp;dn":"The.Simpsons.S27E08.720p.WEB-DL.DD5.1.H264-NTb","amp;tr":["udp%3A%2F%2Ftracker.leechers-paradise.org%3A6969","udp%3A%2F%2Fzer0day.ch%3A1337","udp%3A%2F%2Fopen.demonii.com%3A1337","udp%3A%2F%2Ftracker.coppersurfer.tk%3A6969","udp%3A%2F%2Fexodus.desync.com%3A6969"],"infoHash":"bcf8613d9eb3d461492ea274ad01649cf4d4fe1a","infoHashBuffer":{"type":"Buffer","data":[188,248,97,61,158,179,212,97,73,46,162,116,173,1,100,156,244,212,254,26]},"announce":[],"urlList":[]}}